<mxfile host="app.diagrams.net" modified="2024-05-04T06:39:15.691Z" agent="Mozilla/5.0 (Macintosh; Intel Mac OS X 10.15; rv:109.0) Gecko/20100101 Firefox/115.0" etag="vf_H1ERqHpwzwrihA-zL" version="24.3.1" type="github">
  <diagram name="第 1 页" id="91eAE4KwVddO2WsWJxRs">
    <mxGraphModel dx="984" dy="680" grid="1" gridSize="10" guides="1" tooltips="1" connect="1" arrows="1" fold="1" page="1" pageScale="1" pageWidth="827" pageHeight="1169" math="0" shadow="0">
      <root>
        <mxCell id="0" />
        <mxCell id="1" parent="0" />
      </root>
    </mxGraphModel>
  </diagram>
</mxfile>
